<svg width="1280" height="640" viewBox="0 0 1280 640" fill="none" xmlns="http://www.w3.org/2000/svg">
<path d="M1219.53 420H1020.92C1008.26 420 998 408.807 998 395V245C998 231.193 1008.26 220 1020.92 220H1219.53C1232.18 220 1242.44 231.193 1242.44 245V395C1242.44 408.807 1232.18 420 1219.53 420ZM1051.47 249.167C1036.71 249.167 1024.74 262.225 1024.74 278.333C1024.74 294.442 1036.71 307.5 1051.47 307.5C1066.24 307.5 1078.21 294.442 1078.21 278.333C1078.21 262.225 1066.24 249.167 1051.47 249.167ZM1028.56 386.667H1211.89V328.333L1170.11 282.753C1167.87 280.312 1164.24 280.312 1162 282.753L1097.31 353.333L1070.8 324.419C1068.56 321.979 1064.94 321.979 1062.7 324.419L1028.56 361.667V386.667Z" fill="#1FAECE"/>
<path d="M202.281 213V352.685C202.281 375.893 195.011 394.246 180.469 407.743C166.025 421.241 146.249 427.989 121.141 427.989C96.4204 427.989 76.7896 421.435 62.2483 408.326C47.7069 395.217 40.2908 377.204 40 354.287V213H83.624V352.976C83.624 366.862 86.9201 377.01 93.5121 383.418C100.201 389.73 109.411 392.886 121.141 392.886C145.667 392.886 158.124 379.971 158.512 354.141V213H202.281Z" fill="#1FAECE"/>
<path d="M284.44 425.076H240.816V213H284.44V425.076Z" fill="#1FAECE"/>
<path fill-rule="evenodd" clip-rule="evenodd" d="M716.5 189.274C713.061 187.168 709.054 186 704.881 186H575.119C570.946 186 566.939 187.168 563.5 189.274C560.391 191.177 557.746 193.846 555.86 197.109L490.979 309.391C488.872 313.037 487.883 317.132 488.011 321.2C488.124 324.801 489.114 328.381 490.979 331.609L555.86 443.891C557.746 447.154 560.391 449.823 563.5 451.726C566.939 453.832 570.946 455 575.119 455L704.881 455C709.054 455 713.061 453.832 716.5 451.726C719.609 449.823 722.254 447.154 724.139 443.891L789.021 331.609C790.886 328.381 791.876 324.801 791.989 321.2C792.117 317.132 791.128 313.037 789.021 309.391L724.139 197.109C722.254 193.846 719.609 191.177 716.5 189.274ZM710.483 278.224V276.225C710.483 274.125 709.556 272.111 707.907 270.626L672.01 238.316C670.36 236.831 668.123 235.997 665.79 235.997H663.57V278.224H710.483ZM651.841 280.863C651.841 285.218 655.8 288.781 660.637 288.781H710.483V396.988C710.483 401.361 706.545 404.905 701.687 404.905H578.539C573.681 404.905 569.742 401.361 569.742 396.988V243.915C569.742 239.542 573.681 235.997 578.539 235.997H651.841V280.863ZM628.584 309.894C628.584 301.149 620.708 294.059 610.992 294.059C601.276 294.059 593.399 301.149 593.399 309.894C593.399 318.64 601.275 325.73 610.992 325.73C620.708 325.73 628.584 318.64 628.584 309.894ZM593.399 373.235H687.226V336.286L672.744 323.25C671.026 321.704 668.241 321.704 666.524 323.25L628.584 357.4L614.101 344.364C612.384 342.818 609.777 342.658 608.059 344.204L593.577 357.24L593.399 373.235Z" fill="#1FAECE"/>
<path d="M377.7 281.028L383.026 276.453C385.281 274.516 388.927 274.516 391.158 276.453L437.793 316.496C440.048 318.434 440.048 321.566 437.793 323.483L391.158 363.547C388.903 365.484 385.257 365.484 383.026 363.547L377.7 358.972C375.421 357.014 375.469 353.82 377.796 351.903L406.703 328.244H337.757C334.567 328.244 332 326.038 332 323.297V316.703C332 313.962 334.567 311.756 337.757 311.756H406.703L377.796 288.097C375.445 286.18 375.397 282.986 377.7 281.028Z" fill="#1FAECE"/>
<path d="M1160.01 376.874V383.733H1156V364.267H1163.59C1165.06 364.267 1166.34 364.535 1167.44 365.07C1168.56 365.604 1169.41 366.366 1170.01 367.356C1170.61 368.336 1170.91 369.455 1170.91 370.711C1170.91 372.619 1170.25 374.125 1168.94 375.23C1167.64 376.326 1165.84 376.874 1163.53 376.874H1160.01ZM1160.01 373.626H1163.59C1164.65 373.626 1165.46 373.376 1166.01 372.877C1166.57 372.378 1166.86 371.665 1166.86 370.738C1166.86 369.784 1166.57 369.013 1166.01 368.425C1165.45 367.837 1164.68 367.534 1163.69 367.516H1160.01V373.626Z" fill="#1FAECE"/>
<path d="M1189.5 383.733H1185.49L1177.68 370.925V383.733H1173.67V364.267H1177.68L1185.51 377.102V364.267H1189.5V383.733Z" fill="#1FAECE"/>
<path d="M1208.41 381.273C1207.68 382.137 1206.66 382.81 1205.34 383.291C1204.03 383.764 1202.56 384 1200.96 384C1199.28 384 1197.8 383.635 1196.52 382.904C1195.26 382.164 1194.28 381.094 1193.58 379.695C1192.89 378.296 1192.54 376.652 1192.52 374.762V373.439C1192.52 371.496 1192.85 369.816 1193.5 368.398C1194.16 366.972 1195.1 365.885 1196.33 365.136C1197.57 364.379 1199.02 364 1200.68 364C1202.99 364 1204.79 364.553 1206.09 365.658C1207.39 366.754 1208.17 368.354 1208.41 370.457H1204.5C1204.32 369.343 1203.93 368.528 1203.31 368.011C1202.71 367.494 1201.87 367.235 1200.8 367.235C1199.44 367.235 1198.4 367.748 1197.68 368.773C1196.97 369.798 1196.61 371.322 1196.6 373.345V374.588C1196.6 376.629 1196.99 378.171 1197.76 379.214C1198.54 380.257 1199.68 380.778 1201.17 380.778C1202.68 380.778 1203.75 380.457 1204.4 379.816V376.46H1200.75V373.505H1208.41V381.273Z" fill="#1FAECE"/>
<path d="M882.13 281.028L886.923 276.453C888.952 274.516 892.234 274.516 894.242 276.453L936.214 316.496C938.244 318.434 938.244 321.566 936.214 323.483L894.242 363.547C892.213 365.484 888.931 365.484 886.923 363.547L882.13 358.972C880.079 357.014 880.122 353.82 882.216 351.903L908.233 328.244H846.182C843.31 328.244 841 326.038 841 323.297V316.703C841 313.962 843.31 311.756 846.182 311.756H908.233L882.216 288.097C880.1 286.18 880.057 282.986 882.13 281.028Z" fill="#1FAECE"/>
</svg>
